<svg xmlns="http://www.w3.org/2000/svg" viewBox="0 0 309 287" width="309" height="287">
  <defs>
    <linearGradient id="halo" x1="0" y1="0.5" x2="1" y2="0.35">
      <stop offset="0" stop-color="#E65773"/>
      <stop offset="1" stop-color="#E99862"/>
    </linearGradient>
  </defs>
  <g transform="scale(0.25) translate(0.000000,1148.000000) scale(0.100000,-0.100000)" fill="url(#halo)" fill-rule="evenodd">
    <path d="M7000 11089 c-96 -4 -227 -15 -290 -23 -63 -9 -149 -20 -190 -26
-302 -41 -381 -53 -425 -65 -27 -7 -114 -25 -193 -40 -79 -14 -160 -32 -180
-40 -20 -8 -79 -21 -129 -30 -51 -9 -130 -27 -175 -40 -46 -14 -123 -37 -173
-51 -49 -14 -104 -31 -121 -39 -17 -7 -62 -21 -99 -30 -37 -10 -105 -32 -152
-51 -47 -18 -99 -36 -116 -40 -18 -4 -54 -17 -82 -29 -27 -13 -81 -35 -120
-50 -38 -15 -75 -31 -80 -36 -6 -4 -42 -21 -80 -37 -316 -132 -592 -279 -802
-426 -265 -187 -498 -417 -573 -566 -12 -25 -28 -52 -35 -60 -7 -8 -22 -39
-34 -67 -12 -29 -31 -77 -43 -105 -30 -74 -33 -299 -4 -368 10 -25 25 -62 34
-83 39 -95 150 -228 249 -299 63 -44 139 -88 153 -88 7 0 24 -8 38 -18 15 -10
61 -28 102 -41 41 -13 91 -30 110 -38 19 -9 58 -19 85 -23 28 -4 123 -24 213
-45 164 -37 164 -37 680 -32 530 4 557 5 842 52 47 7 128 19 180 25 52 6 124
17 160 25 36 8 128 26 205 40 301 56 775 180 917 239 21 9 61 16 91 16 33 0
67 7 92 20 22 11 50 20 63 20 13 0 60 17 105 39 45 21 109 46 142 55 115 33
286 101 320 128 12 9 46 27 76 38 30 12 59 25 64 30 10 8 110 63 234 127 175
91 297 166 331 203 3 3 21 17 40 30 19 14 78 59 130 100 52 42 104 83 116 91
21 14 57 55 151 170 141 172 223 363 231 534 6 143 -9 208 -83 358 -31 62
-143 172 -261 257 -118 84 -356 190 -474 211 -30 5 -91 16 -135 24 -44 8 -112
21 -151 29 -145 32 -561 43 -954 25z m675 -626 c11 -6 74 -16 140 -22 139 -14
246 -36 295 -61 19 -10 64 -32 100 -48 84 -39 100 -65 100 -166 0 -75 0 -75
-87 -168 -49 -51 -91 -94 -94 -96 -4 -2 -40 -29 -80 -62 -70 -56 -249 -168
-300 -189 -13 -5 -46 -26 -73 -45 -27 -20 -54 -36 -60 -36 -6 0 -27 -8 -46
-19 -19 -10 -107 -49 -195 -86 -88 -37 -194 -84 -235 -105 -140 -69 -389 -151
-625 -205 -44 -10 -96 -26 -115 -36 -20 -9 -58 -20 -85 -24 -28 -5 -68 -14
-90 -22 -22 -8 -71 -20 -110 -28 -185 -37 -313 -66 -369 -84 -33 -10 -115 -24
-181 -31 -66 -6 -165 -18 -220 -25 -167 -24 -548 -54 -765 -60 -356 -10 -643
27 -815 105 -11 5 -29 11 -40 15 -11 3 -36 19 -55 34 -35 29 -35 31 -38 119
-4 89 -4 89 56 160 80 96 291 282 320 282 5 0 17 9 27 20 10 11 23 20 29 20 6
0 36 16 65 35 30 20 82 50 117 66 35 17 68 37 75 45 6 8 17 14 24 14 20 0 122
49 135 65 7 8 20 15 29 15 9 1 34 9 56 20 22 11 45 19 52 20 7 0 29 11 49 25
20 14 43 25 50 25 7 0 25 6 41 14 51 25 117 53 151 65 17 6 47 16 65 22 17 6
50 19 72 29 22 10 78 28 125 40 47 12 103 30 125 40 22 10 78 28 125 39 47 12
114 30 150 40 36 11 110 29 165 40 55 12 132 30 170 40 80 22 155 37 270 56
44 7 105 20 135 29 30 9 98 20 151 26 53 5 102 12 110 14 8 3 93 10 189 16 96
7 216 18 265 25 109 16 619 15 650 -2z"/>
  </g>
  <g transform="scale(0.25) translate(0.000000,1148.000000) scale(0.100000,-0.100000)" fill="#EE8071" fill-rule="evenodd">
    <path d="M732 3410 c-61 -18 -75 -25 -160 -82 -154 -103 -226 -269 -225 -518
0 -199 28 -307 124 -480 47 -83 167 -239 211 -273 13 -10 57 -44 98 -76 41
-32 108 -77 148 -100 72 -42 72 -42 72 -106 0 -35 -5 -67 -10 -70 -42 -26 -98
-169 -107 -271 -20 -239 215 -522 512 -615 39 -12 93 -31 120 -43 68 -29 426
-30 515 -2 50 16 78 23 210 55 25 6 63 19 85 30 132 62 215 108 255 140 25 20
65 50 90 66 58 39 172 153 233 233 71 94 68 124 -20 211 -113 111 -245 260
-323 366 -40 55 -90 123 -111 150 -118 157 -282 463 -393 730 -78 186 -110
224 -277 329 -52 33 -131 83 -176 113 -77 50 -125 75 -299 152 -170 75 -427
102 -572 61z M11180 3427 c-3 -3 -48 -14 -101 -25 -209 -44 -505 -195 -735 -374
-34 -27 -66 -48 -71 -48 -22 0 -54 -51 -86 -140 -152 -419 -448 -887 -790
-1250 -171 -181 -174 -190 -109 -274 90 -117 234 -251 361 -335 107 -72 357
-181 415 -181 9 0 42 -9 73 -19 97 -32 403 -39 508 -10 44 11 100 25 124 30
103 21 264 121 376 234 123 123 165 226 165 400 0 115 -14 163 -72 243 -36 48
-39 57 -36 109 3 57 3 57 54 83 152 76 365 278 452 430 14 25 31 52 38 60 6 8
23 50 37 92 14 42 33 87 41 100 45 71 39 435 -8 540 -56 123 -233 284 -344
314 -56 15 -282 31 -292 21z"/>
  </g>
  <g transform="scale(0.25) translate(0.000000,1148.000000) scale(0.100000,-0.100000)" fill="#1C1E35" fill-rule="evenodd">
    <path d="M6735 8535 c-346 -113 -989 -248 -1409 -295 -50 -6 -117 -15 -150
-20 -119 -18 -491 -32 -703 -25 -196 7 -215 6 -240 -11 -16 -10 -64 -36 -108
-59 -88 -44 -110 -58 -313 -190 -636 -418 -1179 -1031 -1527 -1725 -285 -567
-442 -1109 -496 -1715 -19 -209 -2 -611 36 -855 34 -216 112 -546 156 -657 16
-39 29 -78 29 -87 0 -9 16 -58 37 -109 332 -842 942 -1514 1703 -1879 241
-116 438 -188 510 -188 40 0 40 0 39 38 0 34 -6 41 -66 87 -364 278 -719 815
-858 1298 -129 449 -161 713 -131 1097 38 484 47 516 239 890 95 187 290 527
375 655 222 335 604 770 873 993 84 70 88 72 141 72 55 0 55 0 100 -87 90
-176 148 -278 233 -407 170 -258 480 -580 735 -762 169 -120 351 -229 463
-276 259 -108 452 -168 546 -168 51 0 51 0 51 46 0 34 -9 61 -34 104 -78 132
-126 264 -126 343 0 57 0 57 55 57 55 0 55 0 202 -123 443 -369 968 -639 1578
-812 257 -73 252 -71 264 -109 60 -181 65 -814 10 -1096 -47 -239 -85 -388
-133 -517 -40 -109 -55 -145 -122 -288 -171 -363 -438 -700 -747 -941 -20 -17
-27 -30 -27 -58 0 -35 1 -36 36 -36 37 0 159 38 230 71 22 10 43 19 47 19 17
0 376 177 462 227 177 105 361 244 589 445 336 296 772 959 901 1368 14 47 42
132 61 190 103 317 151 588 180 1014 30 439 -12 821 -146 1349 -205 807 -655
1569 -1271 2151 -272 258 -657 521 -1014 695 -132 64 -190 90 -295 131 -25 10
-63 25 -85 34 -22 9 -78 27 -125 41 -47 14 -100 31 -119 37 -56 17 -220 58
-306 75 -138 27 -155 26 -330 -32z"/>
  </g>
  <g transform="scale(0.25) translate(0.000000,1148.000000) scale(0.100000,-0.100000)" fill="#2653BD" fill-rule="evenodd">
    <path d="M4675 3423 c-116 -67 -172 -142 -220 -298 -45 -147 -55 -208 -55
-339 1 -152 13 -239 39 -272 12 -15 21 -40 21 -55 0 -34 32 -122 51 -143 8 -8
25 -32 37 -53 81 -131 304 -185 408 -99 63 52 154 150 154 166 0 8 7 24 15 34
8 11 15 36 15 56 0 21 10 50 24 70 33 51 50 190 42 355 -9 190 -14 225 -41
280 -14 28 -34 70 -45 95 -37 84 -103 163 -159 191 -29 15 -58 32 -64 38 -6 6
-43 11 -86 10 -68 -1 -83 -5 -136 -36z M7290 3440 c-14 -11 -32 -20 -41 -20 -18 0 -119 -86 -119 -101 0 -5
-16 -34 -36 -65 -43 -67 -70 -147 -78 -231 -3 -35 -13 -79 -21 -99 -27 -65
-19 -240 18 -374 8 -30 20 -82 27 -115 7 -33 20 -69 29 -80 10 -11 27 -36 39
-55 31 -52 60 -83 122 -129 54 -41 54 -41 163 -41 88 0 109 3 114 15 3 9 22
24 42 34 47 25 110 94 140 156 13 28 28 58 33 68 4 9 20 52 34 95 55 169 37
582 -29 680 -14 21 -30 54 -37 75 -15 48 -87 123 -162 171 -53 33 -62 36 -135
36 -62 0 -83 -4 -103 -20z"/>
  </g>
</svg>
